<svg xmlns="http://www.w3.org/2000/svg" width="564" height="120" viewBox="0 0 564 120" fill="none">
  <path d="M 124.637 1.499 L 125.245 2.293 L 125.245 2.293 L 124.637 1.499 Z M 368.341 94.757 L 368.608 93.794 L 368.341 94.757 Z M 0 62.503 L 0.04 63.502 C 26.776 62.439 57.987 47.168 82.476 32.224 C 94.744 24.738 105.37 17.306 112.963 11.719 C 116.76 8.926 119.8 6.592 121.909 4.943 C 122.963 4.119 123.785 3.466 124.352 3.011 C 124.636 2.784 124.856 2.607 125.009 2.483 C 125.087 2.421 125.145 2.374 125.188 2.339 C 125.237 2.299 125.249 2.29 125.245 2.293 L 124.637 1.499 L 124.029 0.705 C 123.733 0.932 105.853 15.617 81.434 30.517 C 56.973 45.444 26.143 60.462 -0.04 61.503 L 0 62.503 Z M 124.637 1.499 L 125.245 2.293 C 126.122 1.621 127.426 1.184 129.232 1.046 C 131.032 0.909 133.252 1.077 135.877 1.54 C 141.13 2.466 147.853 4.546 155.804 7.527 C 171.7 13.485 192.312 22.967 215.518 33.747 C 261.883 55.284 318.54 81.971 368.073 95.721 L 368.341 94.757 L 368.608 93.794 C 319.268 80.098 262.777 53.494 216.36 31.933 C 193.175 21.163 172.488 11.644 156.506 5.654 C 148.519 2.66 141.659 0.529 136.225 -0.43 C 133.507 -0.909 131.108 -1.102 129.08 -0.948 C 127.059 -0.794 125.328 -0.289 124.029 0.705 L 124.637 1.499 Z M 368.341 94.757 L 368.073 95.721 C 455.098 119.877 521.489 121 564 121 L 564 120 L 564 119 C 521.563 119 455.379 117.88 368.608 93.794 L 368.341 94.757 Z" fill="currentColor" fill-rule="nonzero"></path>
</svg>